<?xml version="1.0" standalone="no"?><!DOCTYPE svg PUBLIC "-//W3C//DTD SVG 1.1//EN" "http://www.w3.org/Graphics/SVG/1.1/DTD/svg11.dtd"><svg class="icon" width="200px" height="200.00px" viewBox="0 0 1024 1024" version="1.1" xmlns="http://www.w3.org/2000/svg"><path d="M976 784H672c-25.6 0-48-22.4-48-48s22.4-48 48-48h304c25.6 0 48 22.4 48 48s-22.4 48-48 48z"  /><path d="M675.2 784c-12.8 0-25.6-3.2-32-12.8-19.2-19.2-19.2-48 0-67.2l144-144c19.2-19.2 48-19.2 67.2 0 19.2 19.2 19.2 48 0 67.2l-144 144c-12.8 9.6-25.6 12.8-35.2 12.8z"  /><path d="M816 928c-12.8 0-25.6-3.2-32-12.8L640 771.2c-19.2-19.2-19.2-48 0-67.2 19.2-19.2 48-19.2 67.2 0l144 144c19.2 19.2 19.2 48 0 67.2-9.6 6.4-22.4 12.8-35.2 12.8z"  /><path d="M956.8 876.8s0 3.2 0 0c0 41.6-12.8 76.8-41.6 102.4-25.6 25.6-60.8 41.6-99.2 41.6-38.4 0-70.4-12.8-99.2-41.6L576 835.2c-19.2-19.2-32-44.8-38.4-70.4-3.2-9.6-3.2-19.2-3.2-28.8 0-9.6 0-19.2 3.2-28.8 6.4-25.6 19.2-51.2 38.4-70.4l144-144c25.6-25.6 60.8-41.6 99.2-41.6 38.4 0 73.6 16 99.2 41.6 25.6 25.6 41.6 60.8 41.6 99.2v3.2h41.6V249.6c0-70.4-57.6-128-128-128H313.6c-70.4 0-128 57.6-128 128V896c0 70.4 57.6 128 128 128h556.8c70.4 0 128-57.6 128-128v-19.2h-41.6z"  /><path d="M115.2 857.6V179.2c0-73.6 60.8-134.4 134.4-134.4H832C809.6 19.2 774.4 0 736 0H179.2c-70.4 0-128 57.6-128 128v649.6c0 48 25.6 89.6 67.2 112-3.2-12.8-3.2-22.4-3.2-32z"  /></svg>