<?xml version="1.0" standalone="no"?><!DOCTYPE svg PUBLIC "-//W3C//DTD SVG 1.1//EN" "http://www.w3.org/Graphics/SVG/1.1/DTD/svg11.dtd"><svg class="icon" width="200px" height="200.00px" viewBox="0 0 1024 1024" version="1.1" xmlns="http://www.w3.org/2000/svg"><path d="M856.865 693.539c-41.814 0-78.578 20.712-101.362 52.17l-132.561-68.223c10.745-23.172 17.217-48.674 17.217-75.86 0-30.939-8.414-59.548-22.136-84.921l77.413-31.975c6.861 11.65 15.276 22.654 26.28 31.845 52.816 44.791 131.783 38.319 176.574-14.498 44.791-52.818 38.319-131.784-14.499-176.575C830.974 280.71 752.007 287.183 707.216 340c-27.055 31.846-35.082 73.271-25.76 111.072l-84.275 34.823c-29.386-34.823-71.459-58.125-119.357-63.044V299.87c60.455-8.933 107.059-60.455 107.059-123.5 0-69.257-56.054-125.31-125.312-125.31S334.26 107.112 334.26 176.37c0 62.915 46.603 114.567 107.058 123.5v122.98c-91.006 9.321-162.335 85.31-162.335 178.777 0 44.92 16.959 85.569 44.144 117.155l-54.5 28.092c-22.655-32.752-60.326-54.241-103.045-54.241-69.258 0-125.312 56.053-125.312 125.31s56.054 125.312 125.312 125.312 125.052-56.183 125.052-125.311c0-13.334-2.59-26.02-6.473-38.06l66.928-34.434c30.292 22.913 67.575 36.894 108.353 36.894 59.42 0 111.718-29.127 144.6-73.4l134.89 69.387c-4.4 12.816-7.378 26.28-7.378 40.649 0 69.257 56.053 125.31 125.311 125.31s125.311-56.053 125.311-125.31-56.053-125.441-125.311-125.441z" /></svg>