<?xml version="1.0" standalone="no"?><!DOCTYPE svg PUBLIC "-//W3C//DTD SVG 1.1//EN" "http://www.w3.org/Graphics/SVG/1.1/DTD/svg11.dtd"><svg class="icon" width="200px" height="200.00px" viewBox="0 0 1024 1024" version="1.1" xmlns="http://www.w3.org/2000/svg"><path d="M693.016 647.76a40 40 0 0 1 0-56.56l84.856-84.856c71.856-71.856 71.856-188.36 0-260.216s-188.36-71.856-260.216 0L432.808 330.984a40 40 0 1 1-56.576-56.568l84.856-84.856c103.096-103.096 270.256-103.096 373.36 0 103.088 103.096 103.088 270.256 0 373.352L749.576 647.768a40 40 0 0 1-56.56 0z m-50.912 107.488l-79.192 79.2c-103.096 103.088-270.256 103.088-373.36 0-103.088-103.104-103.088-270.264 0-373.36l79.2-79.2a40 40 0 0 1 56.568 56.576l-79.192 79.2c-71.856 71.848-71.856 188.352 0 260.208 71.856 71.856 188.36 71.856 260.216 0l79.2-79.2a40 40 0 1 1 56.56 56.576z m33.944-407.296a40 40 0 0 1 0 56.568L404.52 676.048a40 40 0 0 1-56.568-56.568l271.528-271.528a40 40 0 0 1 56.568 0z" /></svg>