<?xml version="1.0" standalone="no"?><!DOCTYPE svg PUBLIC "-//W3C//DTD SVG 1.1//EN" "http://www.w3.org/Graphics/SVG/1.1/DTD/svg11.dtd"><svg class="icon" width="200px" height="200.00px" viewBox="0 0 1024 1024" version="1.1" xmlns="http://www.w3.org/2000/svg"><path d="M510.293333 1.706667C228.693333 1.706667 0 230.4 0 512s228.693333 510.293333 510.293333 510.293333S1020.586667 793.6 1020.586667 512C1022.293333 230.4 793.6 1.706667 510.293333 1.706667z m0 969.386666C256 971.093333 51.2 764.586667 51.2 512 51.2 257.706667 257.706667 51.2 510.293333 51.2c254.293333 0 460.8 206.506667 460.8 460.8s-206.506667 459.093333-460.8 459.093333z m0 0"  /><path d="M256 512c0 141.653333 114.346667 256 256 256s256-114.346667 256-256-114.346667-256-256-256-256 114.346667-256 256z m0 0"  /></svg>