<?xml version="1.0" standalone="no"?><!DOCTYPE svg PUBLIC "-//W3C//DTD SVG 1.1//EN" "http://www.w3.org/Graphics/SVG/1.1/DTD/svg11.dtd"><svg class="icon" width="200px" height="200.00px" viewBox="0 0 1024 1024" version="1.1" xmlns="http://www.w3.org/2000/svg"><path d="M731.918 173.423H293.285c-40.383 0-73.106 32.72-73.106 73.103v24.368h584.844v-24.368c0.001-40.383-32.72-73.103-73.105-73.103m-127.696-48.735l10.756 76.91H410.225l10.756-76.91h183.24m5.855-48.735H415.128c-20.108 0-38.813 16.276-41.621 36.218l-14.255 101.968c-2.784 19.917 11.4 36.194 31.508 36.194h243.685c20.108 0 34.293-16.276 31.484-36.218l-14.255-101.968c-2.786-19.918-21.49-36.194-41.598-36.194m134.026 243.674H281.1c-26.795 0-46.761 21.846-44.334 48.545l39.933 438.995c2.403 26.7 26.344 48.545 53.14 48.545h365.527c26.795 0 50.736-21.846 53.14-48.545l39.932-438.995c2.426-26.699-17.54-48.545-44.336-48.545M415.128 758.242h-73.106l-24.369-341.145h97.474v341.145z m146.211 0h-97.474V417.097h97.474v341.145z m121.842 0h-73.106V417.097h97.474l-24.368 341.145z"  /></svg>