<?xml version="1.0" standalone="no"?><!DOCTYPE svg PUBLIC "-//W3C//DTD SVG 1.1//EN" "http://www.w3.org/Graphics/SVG/1.1/DTD/svg11.dtd"><svg class="icon" width="200px" height="200.00px" viewBox="0 0 1024 1024" version="1.1" xmlns="http://www.w3.org/2000/svg"><path d="M833.5 41.4H302.4c-52.4 0-95.3 45-95.3 99.8v82.5H47.6c-26.2 0-47.6 22.6-47.6 50v494.5c0 27.4 21.5 50 47.6 50h159.6v64.9c0 54.9 42.8 99.8 95.3 99.8h626.3c52.4 0 95.3-45 95.3-99.8v-637L833.5 41.4z m0 70l123.8 134.9h-100c-14.3 0-23.8-9.9-23.8-25V111.4zM219 670.8h-73.8l100-144.8-85.7-124.8h73.8l47.6 79.9 52.4-79.9h71.5L321.5 526l100 144.8h-73.8L283.4 576 219 670.8z m757.3 212.1c0 27.4-21.5 50-47.6 50H302.4c-26.2 0-47.6-22.4-47.6-50V818h261.9c26.2 0 47.6-22.4 47.6-50V273.7c0-27.4-21.5-50-47.6-50H254.9v-82.5c0-27.4 21.5-50 47.6-50h483.3v130c0 39.9 30.9 75 71.5 75h119v586.7z m0 0"  /><path d="M809.5 633.3h-119c-14.3 0-23.8 10.1-23.8 25s9.5 25 23.8 25h119c14.3 0 23.8-10.1 23.8-25 0.2-15-9.4-25-23.8-25z m0-124.9h-119c-14.3 0-23.8 10.1-23.8 25s9.5 25 23.8 25h119c14.3 0 23.8-10.1 23.8-25 0.2-15.1-9.4-25-23.8-25z m0-124.8h-119c-14.3 0-23.8 10.1-23.8 25s9.5 25 23.8 25h119c14.3 0 23.8-10.1 23.8-25 0.2-15.1-9.4-25-23.8-25z m0 0"  /></svg>