<?xml version="1.0" standalone="no"?><!DOCTYPE svg PUBLIC "-//W3C//DTD SVG 1.1//EN" "http://www.w3.org/Graphics/SVG/1.1/DTD/svg11.dtd"><svg t="1587440248405" class="icon" viewBox="0 0 1024 1024" version="1.1" xmlns="http://www.w3.org/2000/svg" p-id="2694" xmlns:xlink="http://www.w3.org/1999/xlink" width="200" height="200"><defs><style type="text/css"></style></defs><path d="M973.358545 459.869091L793.413818 275.269818l-50.641454 51.944727L877.474909 465.454545h-405.876364v85.364364h413.137455L742.865455 696.878545l50.455272 51.851637 192.791273-197.818182 37.888-39.005091-50.641455-51.944727zM694.923636 219.508364h-73.169454V124.369455a51.2 51.2 0 0 0-51.2-51.2H124.369455a51.2 51.2 0 0 0-51.2 51.2v775.26109c0 28.299636 22.900364 51.2 51.2 51.2h446.184727a51.2 51.2 0 0 0 51.2-51.2V804.584727h73.169454V921.6a102.4 102.4 0 0 1-102.4 102.4H102.4A102.4 102.4 0 0 1 0 921.6V102.4A102.4 102.4 0 0 1 102.4 0h490.123636a102.4 102.4 0 0 1 102.4 102.4v117.015273z" p-id="2695"></path></svg>