<?xml version="1.0" standalone="no"?><!DOCTYPE svg PUBLIC "-//W3C//DTD SVG 1.1//EN" "http://www.w3.org/Graphics/SVG/1.1/DTD/svg11.dtd"><svg class="icon" width="200px" height="200.00px" viewBox="0 0 1024 1024" version="1.1" xmlns="http://www.w3.org/2000/svg"><path d="M999.338667 456.832l-94.122667-86.656c-17.066667-15.701333-51.285333-15.701333-68.522667 0-17.066667 15.701333-17.066667 39.381333 0 55.082667l51.328 47.274666h-128.426666c-25.685333 0-42.752 15.701333-42.752 39.381334v7.850666c0 23.722667 17.066667 39.424 42.794666 39.424h119.850667l-42.794667 39.552c-17.066667 15.701333-17.066667 39.381333 0 55.082667 17.066667 15.701333 42.794667 15.701333 59.861334 0l94.08-86.613333c42.965333-23.594667 42.965333-78.848 8.704-110.378667zM307.242667 541.568c0-27.008-16.554667-44.928-41.514667-44.928H132.949333l49.792-53.845333a45.994667 45.994667 0 0 0 0-62.848c-16.554667-27.008-41.514667-27.008-66.474666-8.96l-91.306667 98.816c-33.237333 35.968-33.237333 98.816 0 134.784l91.306667 98.773333c16.512 17.92 41.472 17.92 58.026666 0a45.994667 45.994667 0 0 0 0-62.805333l-33.066666-45.098667h116.224c25.002667 0 49.792-26.88 49.792-53.888zM350.549333 193.024c17.834667 17.493333 44.8 17.493333 62.72 0l53.76-52.650667v122.922667c0 26.453333 17.834667 43.904 44.8 43.904h8.96c26.965333 0 44.8-17.493333 44.8-43.904v-122.88l53.802667 52.608c17.877333 17.493333 44.842667 17.493333 62.72 0a41.813333 41.813333 0 0 0 0-61.397333L592.426667 26.368c-35.925333-35.157333-98.602667-35.157333-134.528 0L350.378667 122.88c-17.706667 17.493333-17.706667 52.650667 0.170666 70.144zM682.368 836.096a43.477333 43.477333 0 0 0-61.525333 0l-52.906667 51.328v-128c0-25.6-17.493333-42.624-43.946667-42.624h-8.789333c-26.453333 0-43.989333 16.981333-43.989333 42.666667v127.957333l-52.736-51.2a43.477333 43.477333 0 0 0-61.525334 0c-26.453333 17.066667-26.453333 51.2 0 68.352l96.725334 93.824c35.242667 34.133333 96.725333 34.133333 131.968 0l96.725333-93.824c17.493333-17.152 17.493333-51.328 0-68.48z" /></svg>