<?xml version="1.0" standalone="no"?><!DOCTYPE svg PUBLIC "-//W3C//DTD SVG 1.1//EN" "http://www.w3.org/Graphics/SVG/1.1/DTD/svg11.dtd"><svg class="icon" width="200px" height="200.00px" viewBox="0 0 1024 1024" version="1.1" xmlns="http://www.w3.org/2000/svg"><path d="M512 960c-247.424 0-448-200.576-448-448s200.576-448 448-448 448 200.576 448 448S759.424 960 512 960zM265.344 649.344C259.584 655.104 256 663.104 256 672l0 64C256 753.6 270.336 768 288 768l64 0c8.832 0 16.832-3.648 22.656-9.344L672 461.248 562.752 352 265.344 649.344zM758.656 329.344l-64-64C688.896 259.584 680.896 256 672 256S655.104 259.584 649.344 265.344L608 306.752 717.248 416l41.344-41.344C764.352 368.832 768 360.832 768 352S764.352 335.168 758.656 329.344z" /></svg>