<?xml version="1.0" encoding="UTF-8"?><!DOCTYPE svg PUBLIC "-//W3C//DTD SVG 1.1//EN" "http://www.w3.org/Graphics/SVG/1.1/DTD/svg11.dtd"><svg width="29px" height="29px" viewBox="0 0 29 29" version="1.1" xmlns="http://www.w3.org/2000/svg" xmlns:xlink="http://www.w3.org/1999/xlink"><path xmlns="http://www.w3.org/2000/svg" d="M8,13 C8,15.7614237 10.2385763,18 13,18 C15.7614237,18 18,15.7614237 18,13 C18,10.2385763 15.7614237,8 13,8 C10.2385763,8 8,10.2385763 8,13 Z" id="路径" fill="#DCEDFF"/><path xmlns="http://www.w3.org/2000/svg" d="M24.7173433,20.4236327 C23.8459429,20.4236327 23.0350563,20.6868283 22.3573004,21.1370313 L17.3968879,16.23155 C18.1316998,15.261882 18.569129,14.0549916 18.569129,12.7459398 C18.569129,11.5511703 18.2043165,10.4395152 17.5818876,9.51833055 L20.5124903,6.50370193 C20.9948727,6.76170289 21.5464139,6.90888464 22.1308055,6.90888464 C24.0326716,6.90888464 25.580099,5.35914736 25.580099,3.45444232 C25.580099,1.54973728 24.0326716,0 22.1308055,0 C20.2289394,0 18.681512,1.54973728 18.681512,3.45444232 C18.681512,4.14706234 18.8872593,4.7894674 19.23824,5.33144256 L16.4061885,8.24390972 C15.3860392,7.42047002 14.1149887,6.97191325 12.8047457,6.97295199 C11.3835331,6.97295199 10.0816193,7.49241701 9.07535921,8.34953427 L6.50611101,5.91670647 C6.75681154,5.43879866 6.90031598,4.89509195 6.90031598,4.31848579 C6.90031598,2.41378075 5.35288857,0.864043468 3.45102248,0.864043468 C1.54915638,0.864043468 0.00172896918,2.41378075 0.00172896918,4.31848579 C0.00172896918,6.22319083 1.54915638,7.77292811 3.45102248,7.77292811 C4.15125499,7.77292811 4.80307637,7.56167901 5.34770166,7.2015166 L7.94115543,9.65339145 C7.35263867,10.5764217 7.04062975,11.649051 7.04209146,12.7442083 C7.04209146,14.1710055 7.56251118,15.4783258 8.42353783,16.4878194 L6.52512967,18.5604848 C5.85133271,18.1434093 5.07476517,17.9227436 4.28265665,17.9232744 C1.92088476,17.9232744 0,19.8470265 0,22.2123239 C0,24.5776212 1.92088476,26.5013733 4.28265665,26.5013733 C6.64442855,26.5013733 8.5653133,24.5776212 8.5653133,22.2123239 C8.5653133,21.2963339 8.27657545,20.4461428 7.7855482,19.7483282 L9.73063853,17.6219847 C10.6498534,18.2076918 11.7169859,18.518277 12.8064747,18.5171961 C14.0565194,18.5171961 15.2131998,18.1154765 16.157217,17.4367089 L21.1366482,22.3629687 C20.6783963,23.0600268 20.434337,23.8763776 20.4346867,24.7109506 C20.4346867,27.0762479 22.3555715,29 24.7173433,29 C27.0791152,29 29,27.0762479 29,24.7109506 C29,22.3456532 27.0773863,20.4236327 24.7173433,20.4236327 Z M22.1308055,1.72808694 C23.0800095,1.72808694 23.8511298,2.50035825 23.8511298,3.45097922 C23.8511298,4.40160019 23.0800095,5.17387151 22.1308055,5.17387151 C21.1816014,5.17387151 20.4104811,4.39986864 20.4104811,3.45097922 C20.4104811,2.5020898 21.1816014,1.72808694 22.1308055,1.72808694 Z M3.44929351,6.04137807 C2.50008943,6.04137807 1.72896918,5.26737521 1.72896918,4.31848579 C1.72896918,3.36959637 2.50008943,2.5955935 3.44929351,2.5955935 C4.39849759,2.5955935 5.16961784,3.36786482 5.16961784,4.31848579 C5.16961784,5.26910676 4.39849759,6.04137807 3.44929351,6.04137807 Z M4.28092768,24.7698233 C2.87354677,24.7698233 1.72724021,23.6235371 1.72724021,22.2123239 C1.72724021,20.8011106 2.8718178,19.6548245 4.28092768,19.6548245 C5.69003756,19.6548245 6.83461516,20.8011106 6.83461516,22.2123239 C6.83461516,23.6235371 5.69003756,24.7698233 4.28092768,24.7698233 Z M12.8047457,16.785646 C10.5795624,16.785646 8.76933166,14.9727132 8.76933166,12.7442083 C8.76933166,10.5157034 10.5795624,8.70277048 12.8047457,8.70277048 C15.0299291,8.70277048 16.8401598,10.5157034 16.8401598,12.7442083 C16.8401598,14.9727132 15.0299291,16.785646 12.8047457,16.785646 L12.8047457,16.785646 Z M24.7173433,27.26845 C23.3099624,27.26845 22.1636559,26.1221638 22.1636559,24.7109506 C22.1636559,23.2997373 23.3082335,22.1534512 24.7173433,22.1534512 C26.1247243,22.1534512 27.2710308,23.2997373 27.2710308,24.7109506 C27.2710308,26.1221638 26.1247243,27.26845 24.7173433,27.26845 Z" id="形状" fill="#5B90EF"/></svg>
