<?xml version="1.0" standalone="no"?><!DOCTYPE svg PUBLIC "-//W3C//DTD SVG 1.1//EN" "http://www.w3.org/Graphics/SVG/1.1/DTD/svg11.dtd"><svg class="icon" width="200px" height="200.00px" viewBox="0 0 1024 1024" version="1.1" xmlns="http://www.w3.org/2000/svg"><path d="M952.957156 858.749156l-123.471645-123.471645c53.816889-68.972089 86.198044-155.465956 86.198045-249.582933 0-224.551822-182.6816-407.210667-407.233423-407.210667-224.529067 0-407.187911 182.658844-407.187911 407.210667S283.921067 892.928 508.450133 892.928a404.138667 404.138667 0 0 0 249.287111-85.993244l123.471645 123.517155a50.926933 50.926933 0 0 0 71.953067 0.227556 50.904178 50.904178 0 0 0-0.2048-71.930311zM178.7904 485.717333c0-181.771378 147.888356-329.636978 329.659733-329.636977s329.659733 147.888356 329.659734 329.636977c0 181.748622-147.888356 329.659733-329.659734 329.659734s-329.659733-147.911111-329.659733-329.659734z m0 0"  /><path d="M645.666133 446.941867h-98.417777v-98.463289c0-20.593778-17.385244-37.2736-38.798223-37.2736-21.412978 0-38.775467 16.657067-38.775466 37.2736v98.463289h-98.440534c-20.593778 0-37.296356 17.362489-37.296355 38.798222 0 21.412978 16.657067 38.798222 37.296355 38.798222h98.440534v98.440533c0 20.571022 17.362489 37.296356 38.775466 37.296356s38.798222-16.702578 38.798223-37.296356v-98.440533h98.417777c20.593778 0 37.319111-17.362489 37.319111-38.798222 0-21.435733-16.725333-38.798222-37.319111-38.798222z m0 0"  /></svg>