<?xml version="1.0" standalone="no"?><!DOCTYPE svg PUBLIC "-//W3C//DTD SVG 1.1//EN" "http://www.w3.org/Graphics/SVG/1.1/DTD/svg11.dtd"><svg class="icon" width="200px" height="200.00px" viewBox="0 0 1024 1024" version="1.1" xmlns="http://www.w3.org/2000/svg"><path d="M943.8 868.6L816.3 741.1c55.6-71.3 89-160.6 89-257.8 0-231.9-188.7-420.6-420.6-420.6-231.9 0-420.6 188.7-420.6 420.6 0 231.9 188.7 420.6 420.6 420.6 97 0 186.3-33.3 257.5-88.8l127.5 127.5c20.6 20.6 53.9 20.7 74.3 0.2 20.5-20.4 20.4-53.6-0.2-74.2zM144.3 483.3c0-187.7 152.7-340.5 340.5-340.5s340.5 152.7 340.5 340.5c0 187.7-152.7 340.5-340.5 340.5S144.3 671 144.3 483.3z" fill="#333333" /><path d="M630.8 523.3H338.7c-18.8 0-34.2-15.4-34.2-34.2v-11.9c0-18.8 15.4-34.2 34.2-34.2h292.2c18.8 0 34.2 15.4 34.2 34.2v11.9c-0.1 18.8-15.5 34.2-34.3 34.2z" fill="#333333" /></svg>